<svg xmlns="http://www.w3.org/2000/svg" width="15" height="13" viewBox="0 0 15 13" fill="none">
  <path d="M3.93325 12.6667L2.99992 11.7333L7.59992 7.11667L9.93325 9.45L13.3833 6L14.3333 6.95L9.93325 11.3333L7.59992 9L3.93325 12.6667ZM1.66659 12C1.29992 12 0.98603 11.8694 0.724919 11.6083C0.463808 11.3472 0.333252 11.0333 0.333252 10.6667V1.33333C0.333252 0.966667 0.463808 0.652778 0.724919 0.391667C0.98603 0.130556 1.29992 0 1.66659 0H10.9999C11.3666 0 11.6805 0.130556 11.9416 0.391667C12.2027 0.652778 12.3333 0.966667 12.3333 1.33333V4.13333H1.66659V12ZM1.66659 2.8H10.9999V1.33333H1.66659V2.8Z" fill="currentColor"/>
</svg>
