<svg width="668" height="625" viewBox="0 0 668 625" fill="none" xmlns="http://www.w3.org/2000/svg"
  style="background-color:#fff">
  <g transform="translate(410, 335) scale(0.6)">
    <path width="100"
      d="M520.327 505.786L522.852 501.82M520.327 505.784L518.667 505.074M520.327 505.784L506.439 514.587M520.327 505.784L548.74 514.767M548.74 514.767L504.86 541.262L479.337 533.429M548.74 514.767L573.94 519.306M548.741 514.769L578.478 465.868M578.476 465.866L566.218 461.823M602.448 470.554L578.477 465.866L581.014 445.535M479.337 533.429L469.246 540.212M479.337 533.429L500.549 519.171L530.032 496.234L556.363 472.377L579.062 448.071L597.737 423.79M573.94 519.307L602.448 470.556M622.952 471.013L639.695 467.316M622.952 471.013L602.448 470.556L606.63 412.473M622.952 471.013L624.568 413.242M606.628 412.471L604.794 412.081M624.567 413.241L606.629 412.473L605.786 410.44M605.786 410.44L612.086 399.993L622.658 379.877M605.786 410.44L597.737 423.79M469.246 540.212L480.398 542.097L529.133 545.4M469.246 540.212L468.475 540.728M529.133 545.4L549.999 545.313L567.154 541.088L613.186 515.181L626.696 506.788L635.922 494.479L661.125 448.169M529.133 545.4L573.939 519.307L595.525 519.413M529.133 545.4L504.859 541.262L470.761 539.193M661.125 448.169L665.63 433.225M661.125 448.169L652.462 459.627L650.451 404.02M661.125 448.169L658.077 394.332M665.63 433.225L665.995 415.12L662.403 365.949M665.63 433.225L662.059 381.548M662.403 365.949L659.176 347.838M662.403 365.949L662.058 381.55M662.403 365.949L641.922 339.148M659.176 347.838L652.494 327.555L647.871 317.311M659.176 347.838L644.794 330.261M647.871 317.311L649.445 310.693L649.916 288.218L642.18 237.517L637.23 216.768M647.871 317.311L644.794 330.261M595.526 519.412L613.186 515.179L639.695 467.313M595.526 519.412L622.951 471.01M595.526 519.412L550 545.311M639.695 467.316L652.462 459.628L626.697 506.789M639.695 467.316L639.241 410.385M639.24 410.382L624.567 413.24L615.27 393.933M639.24 410.382L650.452 404.019M639.24 410.382L622.658 379.877M650.452 404.019L658.078 394.331M650.452 404.019L628.845 368.11M622.658 379.877L628.845 368.11M658.077 394.332L662.058 381.55M658.077 394.332L633.986 357.67M628.845 368.11L632.462 361.23M662.058 381.55L638.159 347.931M633.986 357.67L632.462 361.23M633.986 357.67L638.159 347.931M641.922 339.148L638.159 347.931M641.922 339.148L643.628 335.168M644.794 330.261L643.628 335.168M652.494 327.556L646.944 321.211M475.418 108.372L479.679 116.331M485.679 117.349L475.418 108.373L448.519 86.7777M485.679 117.349L491.042 118.257M485.679 117.349L479.679 116.332L479.654 116.329L467.909 114.335L441.963 113.281M448.519 86.7777L457.789 98.7803M448.519 86.7777L421.525 67.0147L394.833 49.3887L368.846 34.1856M368.846 34.1856L343.967 21.6608M368.846 34.1856L393.083 56.1101M343.967 21.6608L320.592 12.049M343.967 21.6608L372.961 46.0171M320.592 12.049L299.113 5.54148M320.592 12.049L354.113 38.3185L372.961 46.0171M299.113 5.54148L279.9 2.29523L231.544 2L212.328 2.14574L196.415 6.20392L152.173 34.267L139.04 42.8188L130.007 55.4307L107.169 103.276L102.543 119.389L102.263 138.316L102.253 139.027M299.113 5.54148L336.854 33.1655M102.253 139.027L108.935 188.415L112.58 208.611M102.253 139.027L106.396 161.909M102.253 139.027L125.202 92.2493M112.58 208.611L120.082 231.257L125.156 242.37M112.58 208.611L106.396 161.91M125.156 242.37L129.801 252.544M125.156 242.37L105.558 258.732M129.801 252.544L130.384 253.818L131.363 255.962L146.267 282.289L164.55 309.747M129.801 252.544L105.558 258.732M164.55 309.747L183.279 334.374M164.55 309.747L166.197 277.535L145.118 246.022L170.898 203.642M183.279 334.374L185.891 337.81L186.09 338.043M183.279 334.374L136.201 309.803M186.09 338.043L181.39 346.688M186.09 338.043L209.898 365.932M209.898 365.932L222.319 379.02M209.898 365.932L218.541 342.198M222.319 379.02L223.314 380.073M222.319 379.02L217.917 387.341L181.39 346.686M223.314 380.073L232.163 389.397M223.314 380.073L225.896 390.664M457.789 98.7803L453.593 113.754M457.789 98.7803L435.829 82.7112M457.79 98.7817L479.654 116.33M421.526 67.0141L435.83 82.7113M435.83 82.7113L414.15 68.4116M435.83 82.7113L432.472 113.877M432.472 113.877L441.963 113.281M432.472 113.877L413.65 115.062M394.833 49.3872L414.149 68.4101M393.082 56.112L414.149 68.4135L415.359 107.813M393.082 56.112L372.961 46.0194M393.082 56.112L399.254 98.5037M415.359 107.81L425.31 114.327M415.359 107.81L399.255 98.5008M415.359 107.81L412.715 115.201M399.254 98.5037L383.904 90.9148M399.254 98.5037L394.307 116.775L393.966 118.028M383.904 90.9148L369.557 85.1846M383.904 90.9148L378.048 120.843M372.961 46.0171L383.904 90.9126M378.048 120.843L383.436 119.613L413.65 115.062M378.048 120.843L353.114 126.53M336.853 33.165L354.112 38.3192L369.556 85.1836M336.853 33.165L321.484 30.6733M336.853 33.165L356.454 81.4174L369.556 85.1823L364.501 123.932M321.484 30.6733L308.286 30.9269L263.312 2.42429M321.484 30.6733L344.829 79.7057M344.829 79.7057L356.455 81.4187L353.114 126.53M344.829 79.7057L334.884 80.0957L308.285 30.9284L297.509 33.9664M344.829 79.7057L343.085 135.423L335.751 136.485M353.114 126.53L332.834 144.511M263.313 2.42644L279.901 2.29584L321.485 30.675M212.329 2.14419L263.312 2.42429M263.312 2.42429L249.669 5.99313M249.669 5.99313L239.264 13.0114M249.669 5.99313L196.416 6.20284L184.15 14.1963L139.04 42.8176M249.669 5.99313L297.51 33.9649M326.811 82.6074L320.767 87.2205L289.381 39.7821M326.811 82.6074L297.51 33.9674L289.381 39.7821M289.381 39.7821L284.08 48.3211M325.755 141.651L329.565 138.586L326.885 143.875M326.885 143.875L327.947 145.971L328.062 146.195L329.372 148.775L329.52 149.068L330.924 151.835L331.78 153.518M326.885 143.875L324.75 139.67L324.748 139.666L324.25 138.688L318.945 125.093L315.939 112.968L282.477 73.095M175.832 26.0812L184.15 14.198L239.264 13.0131M175.832 26.0812L171.695 41.7329M175.832 26.0812L130.007 55.4318L125.33 71.977M175.832 26.0812L232.341 23.4274M239.264 13.0131L232.341 23.4274M239.264 13.0131L289.38 39.7814M232.341 23.4274L229.097 37.1257M232.341 23.4274L283.512 48.0454L284.08 48.3199M316.884 93.8826L320.766 87.2179L324.747 139.664M316.885 93.8829L315.255 102.509M316.885 93.8829L284.081 48.3188L281.75 59.4751L229.097 37.1245M316.885 93.8829L320.144 128.164M315.255 102.509L315.938 112.966M315.255 102.509L316.688 115.991M315.255 102.509L281.75 59.4761L282.477 73.095M125.33 71.9743L171.695 41.7308M171.695 41.7308L171.697 42.0307L171.913 60.9571M171.695 41.7308L229.097 37.1245M229.097 37.1245L229.661 53.9291M282.477 73.095L286.299 88.9707M282.477 73.095L229.662 53.9307M102.543 119.389L125.331 71.9753L125.202 92.2493M125.202 92.2493L129.725 115.966L176.581 83.484M125.202 92.2507L171.913 60.9585M171.913 60.9585L176.581 83.4852M171.913 60.9585L229.662 53.9307M229.662 53.9307L234.1 73.5934M331.78 153.518L341.416 169.325M331.78 153.518L303.064 126.409L315.77 147.323M341.416 169.325L349.849 181.335M341.416 169.325L320.21 151.133L320.055 150.998L315.77 147.323M349.849 181.335L350.184 181.81L350.35 182.05L352.998 185.821L363.352 198.94M349.849 181.335L363.993 179.315M363.352 198.94L365.762 201.995L366.023 202.324L366.322 202.705M363.352 198.94L363.374 198.234L363.993 179.315M366.322 202.705L374.527 212.091L374.626 212.203L381.148 219.665L397.205 236.38L414.193 252.539L423.834 260.919M366.322 202.705L348.786 191.637M423.834 260.919L423.858 260.94L427.027 263.694M423.834 260.919L423.699 260.048M185.702 108.953L176.581 83.4828L234.1 73.591M234.1 73.591L242.398 95.7976M234.1 73.591L286.299 88.9682M242.398 95.7976L185.703 108.953L199.191 136.937M242.398 95.7976L254.467 120.174M242.398 95.7976L293.188 106.841M293.188 106.842L286.379 89.1802L286.298 88.9701L318.943 125.093M185.702 108.956L138.923 142.754L129.725 115.969L106.396 161.912L114.992 187.675L120.082 231.258M293.188 106.841L303.063 126.407M293.188 106.841L324.25 138.686M127.956 215.88L114.992 187.674L138.923 142.753L152.708 172.152L199.191 136.938M254.467 120.176L199.191 136.939L216.857 166.934L170.898 203.642M254.467 120.176L270.133 146.285M254.467 120.176L303.063 126.409M315.77 147.323L331.101 169.201L289.14 173.644M131.363 255.961L127.956 215.878M127.956 215.878L128.155 216.225L145.118 246.02M127.956 215.878L152.709 172.151L170.899 203.64M170.898 203.642L193.2 236.624M238.418 198.382L216.857 166.932L270.134 146.284M238.418 198.382L263.491 230.67L219.219 270.459M238.418 198.382L289.14 173.644M270.134 146.284L289.14 173.644M270.134 146.284L315.77 147.321M289.14 173.644L301.225 189.068L301.24 189.085L301.626 189.579L311.151 201.733M146.267 282.291L145.118 246.023M193.201 236.625L238.418 198.384M348.787 191.636L331.102 169.201L352.998 185.82M219.219 270.458L193.2 236.622L166.197 277.533L190.827 309.806L185.891 337.808M219.219 270.459L190.827 309.808L218.542 342.198M219.219 270.459L248.467 304.47M291.61 263.162L263.492 230.671L311.151 201.734M291.61 263.162L248.466 304.471M291.61 263.162L322.219 295.193M291.61 263.162L335.758 230.001L311.151 201.734M311.151 201.734L348.786 191.637M348.786 191.637L368.5 214.202M248.466 304.471L218.541 342.198M248.466 304.471L280.368 337.965M368.5 214.2L381.148 219.662M368.5 214.2L335.758 229.999L336.29 230.556L362.485 257.886L322.219 295.192M368.5 214.2L389.874 236.457M389.874 236.457L397.205 236.378M389.874 236.457L412.497 257.977M218.541 342.198L248.803 374.055M248.803 374.055L239.988 387.594M248.803 374.055L257.785 382.609M280.368 337.962L322.219 295.192M280.368 337.962L248.804 374.052M280.368 337.962L306.755 363.083M322.219 295.192L354.708 326.113M354.708 326.113L361.154 331.693M354.708 326.113L334.032 348.689M390.81 284.836L404.106 296.375M390.81 284.836L363.383 258.741L362.484 257.888L389.873 236.459M390.81 284.836L412.497 257.979M412.497 257.977L424.933 268.785L425.309 269.11L426.727 270.344M412.497 257.977L414.193 252.537M354.709 326.116L390.811 284.837M606.295 341.572L623.631 313.248M623.632 313.248L587.491 269.158L570.631 296.074M570.631 296.074L518.832 264.718M570.631 296.074L548.721 323.684M570.631 296.075L605.663 340.765L606.296 341.573M606.296 341.573L583.662 370.602L556.094 399.774M606.296 341.573L616.051 388.417L594.616 416.225L568.5 444.121M599.07 243.433L587.49 269.16L533.86 241.328L518.832 264.719M518.832 264.719L465.456 256.23M518.832 264.719L499.438 288.704L475.997 312.822M477.745 237.492L478.181 236.583L486.406 219.534M477.745 237.492L533.861 241.327L544.319 218.95L599.072 243.432L605.265 219.348M477.745 237.492L434.917 258.275L434.633 258.413M477.744 237.49L465.456 256.227M465.456 256.23L425.881 272.333L425.239 272.592M465.456 256.23L449.723 275.405M486.406 219.534L491.333 202.669M486.406 219.534L441.325 244.782L445.218 231.942M441.324 244.785L434.633 258.415L426.759 270.3L426.727 270.347L426.238 271.087L425.78 271.776L425.631 272.003L425.239 272.592M425.239 272.592L424.484 273.508L424.156 273.904L420.867 277.888L420.683 278.111L413.288 287.068L410.059 290.339L409.273 291.138L405.908 294.549L405.715 294.744L398.974 301.575L393.599 306.248L382.55 315.847L364.307 329.615L361.364 331.555L361.154 331.696L344.578 342.621M344.578 342.621L358.538 349.29L384.788 331.965L418.682 359.593L448.913 336.608L491.259 378.845L522.11 351.458M344.578 342.621L334.031 348.691L333.918 348.758L323.731 354.618L302.154 365.38M302.154 365.38L302.034 379.607L330.775 365.275L351.15 401.34L385.882 381.316M302.154 365.38L281.664 374.106L280.252 374.706L258.438 382.425L257.785 382.609M257.785 382.609L239.988 387.594M239.988 387.594L237.117 388.399M237.117 388.399L234.83 388.859L216.68 392.525M237.117 388.399L215.516 410.152M216.68 392.525L207.337 400.143L207.097 400.34L188.417 415.571M216.68 392.525L211.827 393.086M211.827 393.086L197.5 394.742L192.433 394.823L191.524 394.836L179.918 395.022L164.237 393.381M211.827 393.086L177.736 356.609L176.136 365.92L121.441 348.099M105.558 258.732L82.5586 280.79L62.6783 303.088M62.6783 303.088L46.2656 325.289M62.6783 303.088L97.724 287.887M46.2656 325.289L33.6253 347.043M46.2656 325.289L84.5388 305.85M33.6253 347.043L7.16368 411.369M33.6253 347.043L25.0207 367.998M33.6253 347.043L74.4575 323.407M7.16368 411.369L2.08896 434.174M7.16368 411.369L25.0203 367.999M2.08896 434.174L2 455.326L13.2605 504.961L18.5642 525.236M2.08896 434.174L20.6648 387.803M18.5642 525.236L29.2113 543.013M18.5642 525.236L7.012 474.437M29.2113 543.013L66.8047 578.545L82.2369 592.987M29.2113 543.013L45.1445 557.921M29.2113 543.013L17.1575 491.133L7.32808 474.957L7.012 474.438L25.2418 422.577M82.2369 592.987L102.52 604.365L127.39 612.404L156.479 616.884M82.2369 592.987L45.1445 557.921M156.479 616.884L198.723 622.057L227.426 622.75M156.479 616.884L189.313 617.653L189.905 617.73L227.426 622.75M156.479 616.884L122.496 582.314L156.866 582.91M227.426 622.75L258.818 620.148L292.333 614.261M292.333 614.261L327.337 605.164M292.333 614.261L263.846 607.808M327.337 605.164L363.157 593.01L399.094 578.019M327.337 605.164L304.16 597.286M399.094 578.019L386.951 565.903L345.47 583.231M399.094 578.019L434.433 560.478L468.475 540.728M468.475 540.728L467.089 522.838L427.766 545.635L407.73 506.56L407.632 506.37M597.737 423.79L616.052 388.417L632.462 361.23M632.462 361.23L623.632 313.249L635.446 286.153M643.628 335.168L635.446 286.153M637.23 216.768L626.992 198.825L592.011 160.723M637.23 216.768L601.583 177.674L606.067 197.312M592.011 160.723L577.627 146.684L558.778 135.728M592.011 160.723L539.521 146.868M592.011 160.723L601.583 177.675L547.577 161.664M558.778 135.728L535.871 127.968L491.042 118.257M558.778 135.728L510.938 125.033M491.042 118.257L445.313 137.907L461.19 143.49M491.042 118.257L510.94 125.033M441.963 113.281L405.867 133.686M413.65 115.062L382.989 135.057M635.446 286.153L599.07 243.431M635.446 286.153L641.624 260.766M550.086 197.985L544.319 218.948L486.406 219.533M445.218 231.942L446.281 220.108M445.218 231.942L429.039 266.858M641.623 260.765L605.264 219.346M606.067 197.312L605.265 219.347L550.087 197.986M606.067 197.312L642.181 237.516L641.624 260.765L649.445 310.692M606.067 197.312L551.149 178.789M551.148 178.791L550.086 197.988L491.333 202.67M492.494 187.186L491.332 202.672L445.217 231.944M551.149 178.789L547.577 161.663M551.149 178.789L492.495 187.184M489.929 173.33L492.496 187.186L446.28 220.11M489.929 173.33L483.737 161.319M489.929 173.33L444.523 209.478M444.523 209.475L446.28 220.107L427.026 263.691M539.52 146.868L547.576 161.664L489.928 173.329M483.737 161.319L474.085 151.326M483.737 161.319L440.01 200.216M440.012 200.214L444.524 209.476L423.699 260.048M440.012 200.214L432.859 192.465M440.012 200.214L420.311 252.799L423.699 260.048M527.213 134.605L539.52 146.867L483.737 161.316M474.085 151.326L461.19 143.492M474.085 151.326L432.858 192.467M414.892 246.696L420.311 252.798L421.407 258.806M577.628 146.683L527.214 134.605M527.214 134.605L510.94 125.033M527.214 134.605L474.087 151.325M510.94 125.033L461.19 143.49M432.858 192.467L423.212 186.343M432.858 192.467L414.892 246.698M416.373 254.433L414.891 246.697L407.547 241.834L423.212 186.342M461.19 143.49L423.212 186.342M423.212 186.342L411.266 181.926L445.313 137.905L426.761 134.631M399.748 238.795L407.548 241.833L408.668 247.281M426.761 134.631L405.866 133.684M426.761 134.631L397.244 179.269M397.244 179.271L411.266 181.927L398.561 237.671M397.244 179.271L381.394 178.402M397.244 179.271L389.062 227.902M467.909 114.335L426.76 134.632M405.866 133.684L382.989 135.055M405.866 133.684L381.394 178.4M381.394 178.402L363.993 179.315M381.394 178.402L377.557 215.557M363.993 179.315L382.99 135.056L358.514 138.69M358.514 138.69L332.834 144.512M358.514 138.69L346.833 177.039M383.437 119.614L358.514 138.692M332.834 144.512L327.947 145.97M332.834 144.512L331.421 152.809M82.5589 280.789L113.77 269.802M113.77 269.802L97.7235 287.886M113.77 269.802L143.975 278.238M113.769 269.801L130.384 253.816M97.724 287.887L84.5388 305.85M97.724 287.887L146.112 296.07L151.415 290.02M84.5388 305.85L74.457 323.408M84.5388 305.85L136.201 309.803M136.201 309.801L146.112 296.068L161.862 305.708M136.201 309.803L128.694 323.198M25.0207 367.998L20.6648 387.803M25.0207 367.998L67.6845 340.272M74.4575 323.407L67.6852 340.271M74.4575 323.407L128.695 323.196M67.6852 340.271L64.3782 356.156M67.6852 340.271L123.737 336.035M128.695 323.196L123.737 336.035M128.695 323.196L180.559 346.317L181.39 346.686M123.737 336.035L121.441 348.097M123.737 336.035L177.736 356.607L181.39 346.686M216.055 392.596L217.916 387.341L218.98 392.058M20.6648 387.803L20.7102 406.11M20.6648 387.803L64.3777 356.158M64.3777 356.158L64.6469 370.782M64.3777 356.158L121.441 348.099M121.441 348.099L121.877 359.174M176.638 374.456L176.136 365.918L203.304 394.068M7.01222 474.436L2 455.324L20.7106 406.107M20.7106 406.107L25.2425 422.575M20.7106 406.107L64.6473 370.779M64.6473 370.779L68.5429 383.882M64.6473 370.779L121.877 359.171M121.877 359.171L125.066 369.059M121.877 359.171L176.638 374.455M179.25 382.072L176.638 374.458L196.702 394.754M25.2418 422.577L34.2725 436.888M25.2418 422.577L68.5422 383.885M34.2725 436.888L47.7362 448.747M34.2725 436.888L17.1572 491.134L32.3717 505.065M34.2725 436.888L76.0566 395.209M76.0564 395.208L68.542 383.883L125.066 369.06M76.0564 395.208L87.1204 404.532L47.7362 448.747M76.0564 395.208L130.125 377.854L130.991 377.578M125.066 369.06L130.991 377.578M125.066 369.06L179.25 382.071M130.991 377.578L139.582 384.559M130.991 377.578L183.952 388.626L190.679 393.993L192.433 394.822M183.952 388.628L179.25 382.073L191.701 394.477M45.1445 557.921L66.2011 569.625M32.3717 505.065L52.5023 515.914M32.3717 505.065L47.7362 448.747M47.7362 448.747L65.4799 457.895M45.1448 557.92L32.372 505.063M101.591 411.657L87.1205 404.531L139.582 384.558M101.591 411.657L119.264 416.423L164.238 393.378L150.719 389.863M101.591 411.657L150.719 389.863M139.582 384.558L150.719 389.863M139.582 384.558L190.679 393.992M150.719 389.863L181.15 395M66.2011 569.625L52.5029 515.913M66.2011 569.625L102.52 604.366M66.2011 569.625L92.1098 577.833M52.5029 515.913L77.2875 523.418L92.1095 577.831M52.5029 515.913L65.48 457.894M87.2647 464.112L65.4801 457.896L101.591 411.66M87.2647 464.112L77.2868 523.42L106.357 527.368M87.2647 464.112L112.758 467.229L106.357 527.366M87.2647 464.112L118.904 416.959L119.264 416.425L139.862 418.708M92.1098 577.833L127.39 612.405M92.1098 577.833L122.495 582.315M122.495 582.313L106.357 527.366M106.357 527.366L139.247 527.615M139.247 527.615L175.385 524.091M139.247 527.615L141.551 467.136M141.551 467.134L112.759 467.227L139.862 418.706M139.862 418.706L163.047 418.431M139.862 418.706L179.918 395.02M163.047 418.431L188.417 415.57M163.047 418.431L197.501 394.739M156.866 582.909L139.247 527.614M156.866 582.909L189.312 617.651L225.319 614.625M156.866 582.909L194.621 579.534M175.385 524.091L194.621 579.535M175.385 524.091L214.11 516.806M175.385 524.091L173.14 463.783M141.551 467.136L173.14 463.785M141.551 467.136L163.047 418.433M225.319 614.625L258.819 620.146M225.319 614.625L263.846 607.807M225.319 614.625L194.621 579.534M194.621 579.534L235.077 572.191M214.11 516.806L254.69 505.856M214.11 516.806L206.953 457.191M173.14 463.783L206.953 457.193M173.14 463.783L188.417 415.571M188.417 415.571L188.778 415.5L215.516 410.152M215.516 410.152L243.844 402.254M263.846 607.807L304.159 597.285M263.846 607.807L235.077 572.191M235.077 572.191L277.457 560.975M235.077 572.194L214.11 516.808M254.69 505.856L296.326 491.426M254.69 505.856L242.356 447.453L224.106 452.473L223.579 452.619L222.266 452.98L222.158 453.009L206.953 457.191M206.953 457.191L215.516 410.151M243.844 402.254L242.356 447.456L278.666 434.736M243.844 402.254L272.869 392.01M243.844 402.254L258.438 382.425M304.159 597.285L345.47 583.231M304.159 597.285L277.457 560.975M277.457 560.975L320.929 546.069M277.457 560.976L254.691 505.857M278.666 434.736L315.174 419.266M278.666 434.736L272.87 392.011M272.869 392.01L280.253 374.705M272.869 392.01L302.034 379.606M345.47 583.231L363.157 593.009M345.47 583.231L320.929 546.069M320.929 546.069L364.618 527.747L338.19 473.775M320.93 546.069L296.327 491.425M338.19 473.774L296.326 491.424L278.666 434.733M315.174 419.264L338.191 473.776L379.434 453.254L407.632 506.37M351.151 401.337L315.174 419.262L302.261 380.293L302.034 379.604M407.633 506.371L364.618 527.749L386.952 565.905L427.767 545.636L434.433 560.48M407.632 506.37L449.096 482.367M351.15 401.338L379.433 453.253L419.216 430.27L449.096 482.366M323.731 354.615L330.351 364.632L330.775 365.272L341.814 358.918L342.133 358.732L358.539 349.289L385.882 381.314L418.683 359.592M456.74 405.297L456.388 404.873L418.683 359.592M456.74 405.297L419.217 430.271L385.883 381.315M456.74 405.297L488.167 456.235M456.74 405.297L491.26 378.844M488.167 456.234L449.097 482.366L467.09 522.837L504.129 497.972L500.55 519.169M409.027 313.636L384.788 331.964L364.307 329.613M409.027 313.636L425.272 299.481L425.29 299.463L430.804 294.659M409.027 313.636L382.55 315.844M524.064 428.51L488.166 456.233L504.129 497.972L538.15 471.553L530.032 496.232M524.064 428.514L491.26 378.846M524.064 428.514L538.15 471.556L568.5 444.121M524.064 428.514L556.094 399.774M475.997 312.822L457.766 328.832L455.801 330.56L455.445 330.871L448.913 336.61L409.027 313.638M475.997 312.822L522.111 351.459L548.722 323.685M475.997 312.822L430.805 294.663M430.804 294.659L449.723 275.402M430.804 294.659L398.975 301.572M568.5 444.121L556.094 399.774M556.094 399.772L522.11 351.455M449.723 275.402L499.439 288.701L548.722 323.683L554.331 331.214L554.365 331.26L583.664 370.6L594.618 416.223L579.062 448.07M449.723 275.402L413.289 287.066M556.363 472.375L568.499 444.119M326.811 82.6074L334.884 80.0976L335.751 136.487L329.565 138.588L326.811 82.6074Z"
      stroke-opacity="0.5" stroke-width="3" stroke-miterlimit="10" stroke-linecap="round"
      stroke-linejoin="round" stroke="#6649DF" />
  </g>
</svg>