<svg width="48" height="30" viewBox="0 0 48 30" fill="none" xmlns="http://www.w3.org/2000/svg">
<path d="M25.7821 17.8461C24.5105 15.9397 22.3723 14.7941 20.081 14.7941H7.39815V7.3959H18.8161L15.9352 3.0745C14.6545 1.15463 12.4961 0 10.1868 0H7.39815C3.31308 0 0 3.31308 0 7.39815V14.7963C0 18.8814 3.31308 22.1945 7.39815 22.1945H28.6811L25.7844 17.8483L25.7821 17.8461Z" fill="black"/>
<path d="M40.0876 7.39844H18.8047L21.7014 11.7446C22.973 13.651 25.1112 14.7966 27.4025 14.7966H40.0854V22.1947H28.6674L31.5483 26.5162C32.829 28.4383 34.9874 29.5929 37.2989 29.5929H40.0876C44.1727 29.5929 47.4858 26.2798 47.4858 22.1947V14.7966C47.4858 10.7115 44.1727 7.39844 40.0876 7.39844Z" fill="#6649DF"/>
</svg>
