<svg width="25" height="24" viewBox="0 0 25 24" fill="none" xmlns="http://www.w3.org/2000/svg">
<path d="M20.4717 4.66683C18.9846 3.97757 17.3945 3.47664 15.732 3.19141C15.5279 3.55706 15.2894 4.04888 15.1249 4.44012C13.3577 4.17685 11.6068 4.17685 9.87207 4.44012C9.70764 4.04888 9.46371 3.55706 9.25771 3.19141C7.5935 3.47664 6.00156 3.97941 4.51443 4.67048C1.51487 9.16066 0.701734 13.5393 1.1083 17.8558C3.09777 19.3275 5.0258 20.2216 6.92129 20.8066C7.3893 20.1686 7.8067 19.4903 8.16628 18.7754C7.48145 18.5176 6.82552 18.1995 6.20576 17.8302C6.37018 17.7096 6.53101 17.5834 6.68639 17.4536C10.4665 19.2051 14.5738 19.2051 18.3088 17.4536C18.466 17.5834 18.6268 17.7096 18.7894 17.8302C18.1678 18.2013 17.5101 18.5195 16.8253 18.7773C17.1848 19.4903 17.6005 20.1704 18.0703 20.8084C19.9676 20.2234 21.8974 19.3294 23.8869 17.8558C24.3639 12.8519 23.0719 8.51346 20.4717 4.66683ZM8.68128 15.2012C7.54651 15.2012 6.61591 14.1518 6.61591 12.8738C6.61591 11.5959 7.52664 10.5446 8.68128 10.5446C9.83594 10.5446 10.7665 11.594 10.7466 12.8738C10.7484 14.1518 9.83594 15.2012 8.68128 15.2012ZM16.3139 15.2012C15.1791 15.2012 14.2485 14.1518 14.2485 12.8738C14.2485 11.5959 15.1592 10.5446 16.3139 10.5446C17.4685 10.5446 18.3991 11.594 18.3793 12.8738C18.3793 14.1518 17.4685 15.2012 16.3139 15.2012Z" fill="currentColor"/>
</svg>
