<svg width="48" height="48" viewBox="0 0 48 48" fill="none" xmlns="http://www.w3.org/2000/svg">
<g clip-path="url(#clip0_254_918)">
<path d="M16.1003 43.5C34.2091 43.5 44.1166 28.4934 44.1166 15.4837C44.1166 15.0618 44.1072 14.6306 44.0884 14.2087C46.0158 12.8149 47.679 11.0885 49 9.1106C47.205 9.9092 45.2993 10.4308 43.3478 10.6575C45.4026 9.42582 46.9411 7.49094 47.6781 5.21153C45.7451 6.35712 43.6312 7.16522 41.4269 7.60122C39.9417 6.02312 37.978 4.97823 35.8394 4.6281C33.7008 4.27797 31.5064 4.6421 29.5955 5.66419C27.6846 6.68629 26.1636 8.30941 25.2677 10.2826C24.3718 12.2558 24.1509 14.4692 24.6391 16.5806C20.725 16.3842 16.8959 15.3674 13.4 13.5962C9.90405 11.825 6.81939 9.33887 4.34594 6.29903C3.0888 8.46649 2.70411 11.0313 3.27006 13.4722C3.83601 15.9131 5.31013 18.0469 7.39281 19.44C5.82926 19.3903 4.29995 18.9694 2.93125 18.2118V18.3337C2.92985 20.6083 3.7162 22.8132 5.15662 24.5735C6.59704 26.3339 8.60265 27.5411 10.8325 27.99C9.38411 28.3863 7.86396 28.444 6.38969 28.1587C7.01891 30.1149 8.24315 31.8258 9.89154 33.0527C11.5399 34.2796 13.5302 34.9612 15.5847 35.0025C12.0968 37.7422 7.78835 39.2283 3.35313 39.2212C2.56657 39.22 1.7808 39.1718 1 39.0768C5.50571 41.9675 10.7471 43.5028 16.1003 43.5Z" fill="currentColor"/>
</g>
<defs>
<clipPath id="clip0_254_918">
<rect width="48" height="48" fill="currentColor"/>
</clipPath>
</defs>
</svg>
