<svg width="12" height="12" viewBox="0 0 12 12" fill="none" xmlns="http://www.w3.org/2000/svg">
  <path d="M5.67603 1.21591C5.70581 1.1512 5.75229 1.09662 5.81017 1.05844C5.86804 1.02025 5.93497 1 6.00327 1C6.07158 1 6.1385 1.02025 6.19638 1.05844C6.25425 1.09662 6.30074 1.1512 6.33051 1.21591L7.67511 4.07726L10.6886 4.53655C10.7559 4.54683 10.819 4.57673 10.871 4.62288C10.9229 4.66902 10.9615 4.72956 10.9824 4.79762C11.0033 4.86568 11.0056 4.93854 10.9892 5.00795C10.9727 5.07735 10.9382 5.14051 10.8893 5.19027L8.70774 7.41016L9.22259 10.5486C9.23407 10.6189 9.22666 10.6912 9.2012 10.7573C9.17573 10.8234 9.13323 10.8806 9.07849 10.9227C9.02375 10.9647 8.95894 10.9898 8.89137 10.9951C8.82381 11.0004 8.75618 10.9858 8.6961 10.9528L6.00255 9.47235L3.3039 10.9566C3.24383 10.9896 3.17619 11.0043 3.10863 10.9989C3.04106 10.9936 2.97625 10.9685 2.92151 10.9265C2.86677 10.8845 2.82427 10.8272 2.7988 10.7611C2.77334 10.695 2.76593 10.6227 2.77741 10.5524L3.29226 7.41398L1.11066 5.1941C1.06184 5.14434 1.02725 5.08118 1.01081 5.01177C0.994364 4.94237 0.996723 4.86951 1.01762 4.80145C1.03852 4.73338 1.07711 4.67285 1.12903 4.6267C1.18095 4.58056 1.24412 4.55065 1.31137 4.54038L4.32562 4.08109L5.67603 1.21591Z" fill="currentColor" stroke="currentColor" stroke-linecap="round" stroke-linejoin="round"/>
</svg>
