<svg width="43" height="42" viewBox="-3 -3 43 42" fill="none" xmlns="http://www.w3.org/2000/svg">
  <path d="M27.5336 10.7612C26.869 10.3433 26.0145 10.3433 25.255 10.7612L19.9382 14.209L16.3303 16.403L11.1084 19.8507C10.4438 20.2687 9.5893 20.2687 8.82975 19.8507L4.74718 17.1343C4.08257 16.7164 3.60786 15.8806 3.60786 14.9403V9.71642C3.60786 8.8806 3.98763 8.04478 4.74718 7.52239L8.82975 4.91045C9.49436 4.49254 10.3488 4.49254 11.1084 4.91045L15.191 7.62686C15.8556 8.04478 16.3303 8.8806 16.3303 9.8209V13.2687L19.9382 10.9701V7.41791C19.9382 6.58209 19.5584 5.74627 18.7988 5.22388L11.2033 0.313433C10.5387 -0.104478 9.68424 -0.104478 8.9247 0.313433L1.13932 5.32836C0.379774 5.74627 0 6.58209 0 7.41791V17.2388C0 18.0746 0.379774 18.9104 1.13932 19.4328L8.82975 24.3433C9.49436 24.7612 10.3488 24.7612 11.1084 24.3433L16.3303 21L19.9382 18.7015L25.16 15.3582C25.8247 14.9403 26.6791 14.9403 27.4387 15.3582L31.5213 17.9701C32.1859 18.3881 32.6606 19.2239 32.6606 20.1642V25.3881C32.6606 26.2239 32.2808 27.0597 31.5213 27.5821L27.5336 30.194C26.869 30.6119 26.0145 30.6119 25.255 30.194L21.1724 27.5821C20.5078 27.1642 20.0331 26.3284 20.0331 25.3881V22.0448L16.4252 24.3433V27.791C16.4252 28.6269 16.805 29.4627 17.5646 29.9851L25.255 34.8955C25.9196 35.3134 26.7741 35.3134 27.5336 34.8955L35.2241 29.9851C35.8887 29.5672 36.3634 28.7313 36.3634 27.791V17.8657C36.3634 17.0299 35.9836 16.194 35.2241 15.6716L27.5336 10.7612Z" fill="#F727FB"/>
</svg>
