<svg width="43" height="42" viewBox="-3 -3 43 42" fill="none" xmlns="http://www.w3.org/2000/svg">
  <path d="M27.5336 10.6567C26.869 10.2388 26.0145 10.2388 25.255 10.6567L19.9382 14.1045L16.3303 16.2985L11.1084 19.7463C10.4438 20.1642 9.5893 20.1642 8.82975 19.7463L4.74718 17.0298C4.08257 16.6119 3.60786 15.7761 3.60786 14.8358V9.61193C3.60786 8.7761 3.98763 7.94028 4.74718 7.4179L8.82975 4.80596C9.49436 4.38804 10.3488 4.38804 11.1084 4.80596L15.191 7.52237C15.8556 7.94028 16.3303 8.7761 16.3303 9.7164V13.1642L19.9382 10.8657V7.31342C19.9382 6.4776 19.5584 5.64178 18.7988 5.11939L11.2033 0.208941C10.5387 -0.20897 9.68424 -0.20897 8.9247 0.208941L1.13932 5.22387C0.379774 5.64178 0 6.4776 0 7.31342V17.1343C0 17.9701 0.379774 18.806 1.13932 19.3283L8.82975 24.2388C9.49436 24.6567 10.3488 24.6567 11.1084 24.2388L16.3303 20.8955L19.9382 18.597L25.16 15.2537C25.8247 14.8358 26.6791 14.8358 27.4387 15.2537L31.5213 17.8657C32.1859 18.2836 32.6606 19.1194 32.6606 20.0597V25.2836C32.6606 26.1194 32.2808 26.9552 31.5213 27.4776L27.5336 30.0895C26.869 30.5074 26.0145 30.5074 25.255 30.0895L21.1724 27.4776C20.5078 27.0597 20.0331 26.2239 20.0331 25.2836V21.9403L16.4252 24.2388V27.6866C16.4252 28.5224 16.805 29.3582 17.5646 29.8806L25.255 34.791C25.9196 35.2089 26.7741 35.2089 27.5336 34.791L35.2241 29.8806C35.8887 29.4627 36.3634 28.6269 36.3634 27.6866V17.7612C36.3634 16.9254 35.9836 16.0895 35.2241 15.5671L27.5336 10.6567Z" fill="#7B3FE4"/>
</svg>
