<svg width="38" height="41" viewBox="-3 -3 38 41" fill="none" xmlns="http://www.w3.org/2000/svg">
  <path d="M29.1369 6.89457L18.3688 0.674505C17.5973 0.232533 16.724 0 15.835 0C14.9464 0 14.0726 0.232533 13.3016 0.674505L2.53362 6.89457C1.76314 7.33943 1.12333 7.97924 0.678573 8.74981C0.233859 9.52033 -0.00019036 10.3944 1.16168e-07 11.284V23.7496C0.00642869 24.6328 0.243619 25.499 0.688048 26.2622C1.13248 27.0256 1.76867 27.6594 2.53362 28.101L13.3016 34.3211C14.0721 34.7659 14.9459 35 15.835 35C16.7245 35 17.5983 34.7659 18.3688 34.3211L29.1369 28.101C29.9073 27.6562 30.5469 27.0164 30.9916 26.2458C31.4364 25.4752 31.6707 24.6012 31.6702 23.7116V11.246C31.664 10.3629 31.4269 9.49662 30.9821 8.73333C30.5378 7.97005 29.9016 7.33619 29.1369 6.89457ZM2.53362 11.284C2.533 10.8387 2.64976 10.401 2.8721 10.0151C3.09457 9.62924 3.41476 9.30886 3.80043 9.08619L14.5683 2.87243C14.953 2.64848 15.3902 2.53052 15.835 2.53052C16.2802 2.53052 16.7173 2.64848 17.1021 2.87243L27.8697 9.08619C28.2502 9.30562 28.5669 9.62005 28.7888 9.99867C29.0107 10.3773 29.1307 10.8072 29.1369 11.246V12.5129C29.1335 13.499 28.7397 14.4438 28.0416 15.1405C27.344 15.8372 26.3983 16.2293 25.4121 16.231H6.25805C4.91548 16.2278 3.60824 16.6613 2.53362 17.4661V11.284ZM29.1369 23.7116C29.1373 24.157 29.0207 24.5946 28.7983 24.9805C28.5759 25.3663 28.2554 25.6868 27.8697 25.9094L17.1021 32.1232C16.7169 32.3456 16.2797 32.4626 15.835 32.4626C15.3902 32.4626 14.9535 32.3456 14.5683 32.1232L3.80043 25.9094C3.42024 25.69 3.10362 25.3756 2.88157 24.997C2.65948 24.6183 2.53957 24.1884 2.53362 23.7496V22.4828C2.537 21.4966 2.93062 20.5518 3.62857 19.855C4.32648 19.1584 5.27186 18.7663 6.25805 18.7646H25.4121C26.755 18.7678 28.0621 18.3343 29.1369 17.5295V23.7116Z" fill="#FFFFFF"/>
  <path d="M9.94382 10.6508H12.4012V14.3309H14.935V10.6508C14.935 9.97885 14.6683 9.33443 14.1931 8.85924C13.7179 8.38414 13.0736 8.11719 12.4012 8.11719H9.94382C9.27187 8.11719 8.62744 8.38414 8.15225 8.85924C7.67711 9.33443 7.41016 9.97885 7.41016 10.6508V14.3309H9.94382V10.6508Z" fill="#FFFFFF"/>
  <path d="M12.4012 24.3446H9.94382V20.6646H7.41016V24.3446C7.41016 25.0166 7.67711 25.6611 8.15225 26.1362C8.62744 26.6113 9.27187 26.8782 9.94382 26.8782H12.4012C13.0736 26.8782 13.7179 26.6113 14.1931 26.1362C14.6683 25.6611 14.935 25.0166 14.935 24.3446V20.6646H12.4012V24.3446Z" fill="#FFFFFF"/>
  <path d="M19.9264 10.6508H22.3902V14.3309H24.924V10.6508C24.924 9.97885 24.6569 9.33443 24.1816 8.85924C23.7064 8.38414 23.0621 8.11719 22.3902 8.11719H19.9264C19.2545 8.11719 18.6097 8.38414 18.1345 8.85924C17.6597 9.33443 17.3926 9.97885 17.3926 10.6508V14.3309H19.9264V10.6508Z" fill="#FFFFFF"/>
  <path d="M22.3902 24.3446H19.9264V20.6646H17.3926V24.3446C17.3926 25.0166 17.6597 25.6611 18.1345 26.1362C18.6097 26.6113 19.2545 26.8782 19.9264 26.8782H22.3902C23.0621 26.8782 23.7064 26.6113 24.1816 26.1362C24.6569 25.6611 24.924 25.0166 24.924 24.3446V20.6646H22.3902V24.3446Z" fill="#FFFFFF"/>
</svg>
